# xmcd
#
# Track frame offsets:
#	150
#	85277
#	104622
#	121902
#	141632
#
# Disc length: 2260 seconds
#
# Revision: 0
# Processed by: cddbd v1.5.2PL0 Copyright (c) Steve Scherf et al.
# Submitted via: EasyCDDAExtractor 12.0.0.1
#
DISCID=4608d205
DTITLE=Yolandita Monge - Limited Edition
DYEAR=1991
DGENRE=Latin
TTITLE0=Mega Mix (Fuiste Un Sueño, Por Ti, No Me Acostumbro)
TTITLE1=Fuiste Un Sueño (Pablo's Dream Single)
TTITLE2=Por Ti (Club Mix Single)
TTITLE3=No Me Acostumbro (Acostumbrate Mix Single)
TTITLE4=No Me Acostumbro (Acostumbrate Mix)
EXTD=
EXTT0=
EXTT1=
EXTT2=
EXTT3=
EXTT4=
PLAYORDER=
